<mxfile host="app.diagrams.net" modified="2023-08-20T17:31:07.363Z" agent="Mozilla/5.0 (Windows NT 10.0; Win64; x64) AppleWebKit/537.36 (KHTML, like Gecko) Chrome/115.0.0.0 Safari/537.36" etag="i4LsG2SNbCx_Z9jqOmRH" version="21.6.6" type="device">
  <diagram name="Page-1" id="b520641d-4fe3-3701-9064-5fc419738815">
    <mxGraphModel dx="1434" dy="758" grid="1" gridSize="10" guides="1" tooltips="1" connect="1" arrows="1" fold="1" page="1" pageScale="1" pageWidth="1100" pageHeight="850" background="none" math="0" shadow="0">
      <root>
        <mxCell id="0" />
        <mxCell id="1" parent="0" />
        <mxCell id="GydJiVa6w5yHV-AoEWcU-1" value="&lt;font style=&quot;font-size: 12px;&quot; face=&quot;Times New Roman&quot;&gt;Начало action_reports (Tokens)&lt;/font&gt;" style="rounded=1;whiteSpace=wrap;html=1;" parent="1" vertex="1">
          <mxGeometry x="495" y="130" width="120" height="30" as="geometry" />
        </mxCell>
        <mxCell id="GydJiVa6w5yHV-AoEWcU-4" value="" style="endArrow=classic;html=1;rounded=0;" parent="1" edge="1">
          <mxGeometry width="50" height="50" relative="1" as="geometry">
            <mxPoint x="555" y="160" as="sourcePoint" />
            <mxPoint x="555" y="180" as="targetPoint" />
          </mxGeometry>
        </mxCell>
        <mxCell id="GydJiVa6w5yHV-AoEWcU-20" value="&lt;font face=&quot;Times New Roman&quot;&gt;нет&lt;/font&gt;" style="text;html=1;align=center;verticalAlign=middle;resizable=0;points=[];autosize=1;strokeColor=none;fillColor=none;" parent="1" vertex="1">
          <mxGeometry x="615" y="190" width="40" height="30" as="geometry" />
        </mxCell>
        <mxCell id="GydJiVa6w5yHV-AoEWcU-44" value="" style="endArrow=classic;html=1;rounded=0;entryX=0.5;entryY=0;entryDx=0;entryDy=0;dashed=1;" parent="1" edge="1" target="GydJiVa6w5yHV-AoEWcU-1">
          <mxGeometry width="50" height="50" relative="1" as="geometry">
            <mxPoint x="555" y="90" as="sourcePoint" />
            <mxPoint x="555" y="110" as="targetPoint" />
          </mxGeometry>
        </mxCell>
        <mxCell id="GydJiVa6w5yHV-AoEWcU-48" value="&lt;font face=&quot;Times New Roman&quot;&gt;да&lt;/font&gt;" style="text;html=1;align=center;verticalAlign=middle;resizable=0;points=[];autosize=1;strokeColor=none;fillColor=none;" parent="1" vertex="1">
          <mxGeometry x="565" y="240" width="30" height="30" as="geometry" />
        </mxCell>
        <mxCell id="GydJiVa6w5yHV-AoEWcU-56" value="" style="endArrow=classic;html=1;rounded=0;" parent="1" edge="1">
          <mxGeometry width="50" height="50" relative="1" as="geometry">
            <mxPoint x="555" y="520" as="sourcePoint" />
            <mxPoint x="555" y="540" as="targetPoint" />
          </mxGeometry>
        </mxCell>
        <mxCell id="SM2zVYtS_7G5GU-y0Fnn-1" value="&lt;font face=&quot;Times New Roman&quot;&gt;Выбран тип отчёта ?&lt;/font&gt;" style="rhombus;whiteSpace=wrap;html=1;" vertex="1" parent="1">
          <mxGeometry x="485" y="180" width="140" height="70" as="geometry" />
        </mxCell>
        <mxCell id="SM2zVYtS_7G5GU-y0Fnn-2" value="" style="endArrow=classic;html=1;rounded=0;" edge="1" parent="1">
          <mxGeometry width="50" height="50" relative="1" as="geometry">
            <mxPoint x="625" y="214.5" as="sourcePoint" />
            <mxPoint x="655" y="214.5" as="targetPoint" />
          </mxGeometry>
        </mxCell>
        <mxCell id="SM2zVYtS_7G5GU-y0Fnn-3" value="&lt;font style=&quot;font-size: 12px;&quot; face=&quot;Times New Roman&quot;&gt;Получение шаблонов отчётов пользователя из БД&lt;/font&gt;" style="rounded=0;whiteSpace=wrap;html=1;" vertex="1" parent="1">
          <mxGeometry x="655" y="190" width="100" height="60" as="geometry" />
        </mxCell>
        <mxCell id="SM2zVYtS_7G5GU-y0Fnn-5" value="&lt;font style=&quot;font-size: 12px;&quot; face=&quot;Times New Roman&quot;&gt;Формирование InlineKeyboard. Кнопка - отчёт&lt;/font&gt;" style="rounded=0;whiteSpace=wrap;html=1;" vertex="1" parent="1">
          <mxGeometry x="655" y="270" width="100" height="50" as="geometry" />
        </mxCell>
        <mxCell id="SM2zVYtS_7G5GU-y0Fnn-7" value="&lt;font face=&quot;Times New Roman&quot;&gt;Модификация управляющей структуры Tokens&lt;/font&gt;" style="rounded=0;whiteSpace=wrap;html=1;" vertex="1" parent="1">
          <mxGeometry x="655" y="340" width="100" height="60" as="geometry" />
        </mxCell>
        <mxCell id="SM2zVYtS_7G5GU-y0Fnn-8" value="&lt;font style=&quot;font-size: 12px;&quot; face=&quot;Times New Roman&quot;&gt;route&lt;/font&gt;" style="rounded=0;whiteSpace=wrap;html=1;" vertex="1" parent="1">
          <mxGeometry x="510" y="470" width="100" height="50" as="geometry" />
        </mxCell>
        <mxCell id="SM2zVYtS_7G5GU-y0Fnn-12" value="" style="endArrow=classic;html=1;rounded=0;" edge="1" parent="1">
          <mxGeometry width="50" height="50" relative="1" as="geometry">
            <mxPoint x="704.5" y="320" as="sourcePoint" />
            <mxPoint x="704.5" y="340" as="targetPoint" />
          </mxGeometry>
        </mxCell>
        <mxCell id="SM2zVYtS_7G5GU-y0Fnn-13" value="" style="endArrow=classic;html=1;rounded=0;" edge="1" parent="1">
          <mxGeometry width="50" height="50" relative="1" as="geometry">
            <mxPoint x="704.5" y="250" as="sourcePoint" />
            <mxPoint x="704.5" y="270" as="targetPoint" />
          </mxGeometry>
        </mxCell>
        <mxCell id="SM2zVYtS_7G5GU-y0Fnn-14" value="&lt;font face=&quot;Times New Roman&quot;&gt;list&lt;/font&gt;" style="text;html=1;align=center;verticalAlign=middle;resizable=0;points=[];autosize=1;strokeColor=none;fillColor=none;" vertex="1" parent="1">
          <mxGeometry x="490" y="255" width="40" height="30" as="geometry" />
        </mxCell>
        <mxCell id="SM2zVYtS_7G5GU-y0Fnn-15" value="&lt;font face=&quot;Times New Roman&quot;&gt;status&lt;/font&gt;" style="text;html=1;align=center;verticalAlign=middle;resizable=0;points=[];autosize=1;strokeColor=none;fillColor=none;" vertex="1" parent="1">
          <mxGeometry x="485" y="310" width="50" height="30" as="geometry" />
        </mxCell>
        <mxCell id="SM2zVYtS_7G5GU-y0Fnn-16" value="&lt;font face=&quot;Times New Roman&quot;&gt;line&lt;/font&gt;" style="text;html=1;align=center;verticalAlign=middle;resizable=0;points=[];autosize=1;strokeColor=none;fillColor=none;" vertex="1" parent="1">
          <mxGeometry x="490" y="360" width="40" height="30" as="geometry" />
        </mxCell>
        <mxCell id="SM2zVYtS_7G5GU-y0Fnn-17" value="&lt;font face=&quot;Times New Roman&quot;&gt;brigadier&lt;/font&gt;" style="text;html=1;align=center;verticalAlign=middle;resizable=0;points=[];autosize=1;strokeColor=none;fillColor=none;" vertex="1" parent="1">
          <mxGeometry x="475" y="410" width="70" height="30" as="geometry" />
        </mxCell>
        <mxCell id="SM2zVYtS_7G5GU-y0Fnn-21" value="" style="endArrow=classic;html=1;rounded=0;entryX=1.005;entryY=0.642;entryDx=0;entryDy=0;entryPerimeter=0;" edge="1" parent="1">
          <mxGeometry width="50" height="50" relative="1" as="geometry">
            <mxPoint x="555" y="280" as="sourcePoint" />
            <mxPoint x="466" y="279" as="targetPoint" />
          </mxGeometry>
        </mxCell>
        <mxCell id="SM2zVYtS_7G5GU-y0Fnn-22" value="" style="endArrow=classic;html=1;rounded=0;entryX=1.005;entryY=0.642;entryDx=0;entryDy=0;entryPerimeter=0;" edge="1" parent="1">
          <mxGeometry width="50" height="50" relative="1" as="geometry">
            <mxPoint x="554" y="330.5" as="sourcePoint" />
            <mxPoint x="465" y="329.5" as="targetPoint" />
          </mxGeometry>
        </mxCell>
        <mxCell id="SM2zVYtS_7G5GU-y0Fnn-23" value="" style="endArrow=classic;html=1;rounded=0;entryX=1.005;entryY=0.642;entryDx=0;entryDy=0;entryPerimeter=0;" edge="1" parent="1">
          <mxGeometry width="50" height="50" relative="1" as="geometry">
            <mxPoint x="554" y="381" as="sourcePoint" />
            <mxPoint x="465" y="380" as="targetPoint" />
          </mxGeometry>
        </mxCell>
        <mxCell id="SM2zVYtS_7G5GU-y0Fnn-27" value="" style="edgeStyle=segmentEdgeStyle;endArrow=classic;html=1;curved=0;rounded=0;endSize=6;startSize=6;exitX=0.5;exitY=1;exitDx=0;exitDy=0;" edge="1" parent="1">
          <mxGeometry width="50" height="50" relative="1" as="geometry">
            <mxPoint x="555" y="250" as="sourcePoint" />
            <mxPoint x="465" y="430" as="targetPoint" />
            <Array as="points">
              <mxPoint x="555" y="430" />
              <mxPoint x="465" y="430" />
            </Array>
          </mxGeometry>
        </mxCell>
        <mxCell id="SM2zVYtS_7G5GU-y0Fnn-29" value="&lt;font face=&quot;Times New Roman&quot;&gt;Обработчик отчёта типа list&lt;/font&gt;" style="rounded=0;whiteSpace=wrap;html=1;" vertex="1" parent="1">
          <mxGeometry x="365" y="260" width="100" height="40" as="geometry" />
        </mxCell>
        <mxCell id="SM2zVYtS_7G5GU-y0Fnn-30" value="&lt;font face=&quot;Times New Roman&quot;&gt;Модификация управляющей структуры Tokens&lt;/font&gt;" style="rounded=0;whiteSpace=wrap;html=1;" vertex="1" parent="1">
          <mxGeometry x="365" y="470" width="100" height="50" as="geometry" />
        </mxCell>
        <mxCell id="SM2zVYtS_7G5GU-y0Fnn-37" value="" style="endArrow=classic;html=1;rounded=0;" edge="1" parent="1">
          <mxGeometry width="50" height="50" relative="1" as="geometry">
            <mxPoint x="365" y="280" as="sourcePoint" />
            <mxPoint x="345" y="280" as="targetPoint" />
          </mxGeometry>
        </mxCell>
        <mxCell id="SM2zVYtS_7G5GU-y0Fnn-41" value="" style="endArrow=classic;html=1;rounded=0;" edge="1" parent="1">
          <mxGeometry width="50" height="50" relative="1" as="geometry">
            <mxPoint x="365" y="427" as="sourcePoint" />
            <mxPoint x="345" y="427" as="targetPoint" />
          </mxGeometry>
        </mxCell>
        <mxCell id="SM2zVYtS_7G5GU-y0Fnn-42" value="" style="endArrow=classic;html=1;rounded=0;" edge="1" parent="1">
          <mxGeometry width="50" height="50" relative="1" as="geometry">
            <mxPoint x="365" y="380" as="sourcePoint" />
            <mxPoint x="345" y="380" as="targetPoint" />
          </mxGeometry>
        </mxCell>
        <mxCell id="SM2zVYtS_7G5GU-y0Fnn-43" value="" style="endArrow=classic;html=1;rounded=0;" edge="1" parent="1">
          <mxGeometry width="50" height="50" relative="1" as="geometry">
            <mxPoint x="365" y="329.5" as="sourcePoint" />
            <mxPoint x="345" y="330" as="targetPoint" />
          </mxGeometry>
        </mxCell>
        <mxCell id="SM2zVYtS_7G5GU-y0Fnn-44" value="" style="edgeStyle=segmentEdgeStyle;endArrow=classic;html=1;curved=0;rounded=0;endSize=6;startSize=6;" edge="1" parent="1">
          <mxGeometry width="50" height="50" relative="1" as="geometry">
            <mxPoint x="345" y="280" as="sourcePoint" />
            <mxPoint x="365" y="500" as="targetPoint" />
            <Array as="points">
              <mxPoint x="345" y="500" />
              <mxPoint x="365" y="500" />
            </Array>
          </mxGeometry>
        </mxCell>
        <mxCell id="SM2zVYtS_7G5GU-y0Fnn-45" value="&lt;font face=&quot;Times New Roman&quot;&gt;Обработчик отчёта типа status&lt;/font&gt;" style="rounded=0;whiteSpace=wrap;html=1;" vertex="1" parent="1">
          <mxGeometry x="365" y="310" width="100" height="40" as="geometry" />
        </mxCell>
        <mxCell id="SM2zVYtS_7G5GU-y0Fnn-46" value="&lt;font face=&quot;Times New Roman&quot;&gt;Обработчик отчёта типа line&lt;/font&gt;" style="rounded=0;whiteSpace=wrap;html=1;" vertex="1" parent="1">
          <mxGeometry x="365" y="360" width="100" height="40" as="geometry" />
        </mxCell>
        <mxCell id="SM2zVYtS_7G5GU-y0Fnn-47" value="&lt;font face=&quot;Times New Roman&quot;&gt;Обработчик отчёта типа brigadier&lt;/font&gt;" style="rounded=0;whiteSpace=wrap;html=1;" vertex="1" parent="1">
          <mxGeometry x="365" y="410" width="100" height="40" as="geometry" />
        </mxCell>
        <mxCell id="SM2zVYtS_7G5GU-y0Fnn-48" value="" style="edgeStyle=segmentEdgeStyle;endArrow=classic;html=1;curved=0;rounded=0;endSize=6;startSize=6;exitX=0.5;exitY=1;exitDx=0;exitDy=0;entryX=1;entryY=0.5;entryDx=0;entryDy=0;" edge="1" parent="1" source="SM2zVYtS_7G5GU-y0Fnn-7" target="SM2zVYtS_7G5GU-y0Fnn-8">
          <mxGeometry width="50" height="50" relative="1" as="geometry">
            <mxPoint x="965" y="440" as="sourcePoint" />
            <mxPoint x="1015" y="390" as="targetPoint" />
            <Array as="points">
              <mxPoint x="705" y="495" />
            </Array>
          </mxGeometry>
        </mxCell>
        <mxCell id="SM2zVYtS_7G5GU-y0Fnn-49" value="" style="endArrow=classic;html=1;rounded=0;" edge="1" parent="1">
          <mxGeometry width="50" height="50" relative="1" as="geometry">
            <mxPoint x="465" y="500" as="sourcePoint" />
            <mxPoint x="505" y="500" as="targetPoint" />
          </mxGeometry>
        </mxCell>
        <mxCell id="SM2zVYtS_7G5GU-y0Fnn-50" value="&lt;font style=&quot;font-size: 12px;&quot; face=&quot;Times New Roman&quot;&gt;Отправка сообщения&lt;/font&gt;" style="rounded=0;whiteSpace=wrap;html=1;" vertex="1" parent="1">
          <mxGeometry x="510" y="540" width="100" height="50" as="geometry" />
        </mxCell>
        <mxCell id="SM2zVYtS_7G5GU-y0Fnn-51" value="&lt;font style=&quot;font-size: 12px;&quot; face=&quot;Times New Roman&quot;&gt;route&lt;/font&gt;" style="rounded=0;whiteSpace=wrap;html=1;" vertex="1" parent="1">
          <mxGeometry x="505" y="40" width="100" height="50" as="geometry" />
        </mxCell>
      </root>
    </mxGraphModel>
  </diagram>
</mxfile>
